# xmcd
#
# Track frame offsets: 
#        150
#        17360
#        42237
#        64819
#        87512
#        110479
#        133978
#        150887
#        175125
#        208336
#        230794
#        259917
#
# Disc length: 3931 seconds
#
# Revision: 0
# Processed by: cddbd v1.5.2PL0 Copyright (c) Steve Scherf et al.
# Submitted via: ExactAudioCopy v1.0b6
#
DISCID=a60f590c
DTITLE=麗蘭 - 磔磔2016盤「Welcome Home 磔磔」DISC1
DYEAR=2017
DGENRE=Blues
TTITLE0=年末SONG
TTITLE1=マニフェスト
TTITLE2=BIRTHDAY SONG
TTITLE3=真夜中のカウボーイ
TTITLE4=清掃の唄
TTITLE5=何はなくてもR&R
TTITLE6=Go Johnny Go
TTITLE7=夜風
TTITLE8=Yes We Can 2016
TTITLE9=太陽のシェリー
TTITLE10=Hey Mr. Scotty Moore
TTITLE11=がらがらヘビ
EXTD=
EXTT0=
EXTT1=
EXTT2=
EXTT3=
EXTT4=
EXTT5=
EXTT6=
EXTT7=
EXTT8=
EXTT9=
EXTT10=
EXTT11=
PLAYORDER=
